<svg width="58" height="56" viewBox="0 0 58 56" fill="none" xmlns="http://www.w3.org/2000/svg">
<rect width="58" height="56" rx="12" fill="#131414"/>
<path d="M24.3731 17.0644L11.7606 33.4768C11.6773 33.5853 11.7546 33.7423 11.8914 33.7423H20.2186C20.2693 33.7423 20.3172 33.7189 20.3484 33.679L32.279 18.4469C32.3018 18.4178 32.3141 18.382 32.3141 18.3452V17.1649C32.3141 17.0738 32.2403 17 32.1492 17H24.5039C24.4526 17 24.4043 17.0238 24.3731 17.0644Z" fill="#ADAFBA"/>
<path d="M36.9917 17.0644L24.3793 33.4768C24.2959 33.5853 24.3733 33.7423 24.5101 33.7423H32.8372C32.8879 33.7423 32.9358 33.7189 32.9671 33.679L43.089 20.7561C43.1117 20.7271 43.124 20.6913 43.124 20.6544V17.1649C43.124 17.0738 43.0502 17 42.9591 17H37.1225C37.0713 17 37.023 17.0238 36.9917 17.0644Z" fill="#ADAFBA"/>
<rect x="24.3403" y="17" width="8.65979" height="16.7423" rx="0.164948" fill="#DDDFE8"/>
<path d="M36.9585 17.1649C36.9585 17.0738 37.0323 17 37.1234 17H43.0991C44.5161 17 45.6183 17.9485 45.6183 19.6392C45.6183 23.9551 45.6183 30.4433 45.6183 30.6082C45.6183 30.7732 45.5358 30.8706 45.5358 30.8706C45.5358 30.8706 45.5358 30.8706 45.5358 30.8706L37.2493 40.6565C37.15 40.7738 36.9585 40.7036 36.9585 40.55V33.7423V17.1649Z" fill="#DDDFE8"/>
</svg>
